<svg xmlns="http://www.w3.org/2000/svg" viewBox="0 0 29 25" width="29" height="25">
	<style>
		tspan { white-space:pre }
		.shp0 { fill: #ffffff } 
	</style>
	<g id="Manu">
		<g id="Menu">
			<path id="umbrella" class="shp0" d="M25.73 4.26C23.43 2.34 21.03 1.06 18.6 0.44C16.56 -0.08 14.49 -0.13 12.45 0.28C9.59 0.85 7.39 2.21 6.15 3.16L4.15 1.18C3.74 0.77 3.08 0.77 2.66 1.18C2.25 1.58 2.25 2.24 2.66 2.65L5.33 5.3C5.72 5.69 6.35 5.71 6.77 5.34C8.57 3.76 14.76 -0.65 22.54 4.49C22.41 4.54 22.28 4.6 22.15 4.66C20.83 5.3 19.1 6.72 18.08 9.79C17.08 10.07 15.11 10.79 13.44 12.45C11.75 14.12 11.01 16.09 10.72 17.08C7.61 18.08 6.19 19.81 5.54 21.11C5.47 21.24 5.41 21.37 5.36 21.5C1.62 15.96 2.85 11.19 4.68 8.04C4.97 7.54 4.79 6.91 4.29 6.62C3.79 6.33 3.15 6.5 2.85 7C0.92 10.32 -1.35 17.03 5.13 24.65C5.34 24.89 5.63 25.02 5.94 25.02C6.08 25.02 6.21 24.99 6.35 24.93C6.77 24.76 7.03 24.33 6.98 23.88C6.98 23.84 6.69 20.34 11.88 18.91C12.27 18.81 12.56 18.49 12.63 18.1C12.64 18.07 13.1 15.74 14.93 13.92C16.76 12.11 19.08 11.69 19.1 11.69C19.5 11.62 19.82 11.33 19.93 10.94C21.34 5.94 24.73 6.08 24.95 6.1C25.42 6.15 25.84 5.89 26.03 5.48C26.22 5.05 26.09 4.56 25.73 4.26ZM27.7 17.38L26.49 16.18C26.08 15.78 25.42 15.78 25 16.18C24.59 16.59 24.59 17.25 25 17.66L26.21 18.85C26.53 19.17 26.71 19.59 26.71 20.05C26.71 20.5 26.53 20.92 26.21 21.24C25.89 21.56 25.46 21.73 25.01 21.73C24.55 21.73 24.12 21.56 23.8 21.24L17.6 15.1C17.19 14.69 16.53 14.69 16.11 15.1C15.7 15.5 15.7 16.16 16.11 16.57L22.31 22.71C23.03 23.42 23.99 23.82 25.01 23.82C26.02 23.82 26.98 23.42 27.7 22.71C28.42 22 28.82 21.05 28.82 20.05C28.82 19.04 28.42 18.09 27.7 17.38Z" />
		</g>
	</g>
</svg>