<svg xmlns="http://www.w3.org/2000/svg" viewBox="0 0 33 23" width="33" height="23">
	<style>
		tspan { white-space:pre }
		.shp0 { fill: #ffffff } 
	</style>
	<g id="Manu">
		<path id="Shape 7" class="shp0" d="M11.55 23C8.03 23 5.06 22.04 3.17 20.29C0.56 17.87 0.01 14.95 0 12.93C-0.01 10.04 1.13 7.03 2.82 5.44C2.86 5.4 2.91 5.36 2.96 5.33C3.11 5.23 4.5 4.37 7.02 4.37C8.97 4.37 11.07 4.88 13.24 5.9C18.63 5.03 24.42 0.29 24.48 0.24C24.67 0.08 24.91 0 25.16 0C28.92 0 32.98 3.22 33 8.42C33.01 13.26 27.89 18.26 19.62 21.45C17 22.47 14.21 23 11.55 23ZM4.2 6.97C3.14 8.03 2.09 10.38 2.1 12.93C2.1 14.56 2.54 16.91 4.63 18.84C6.12 20.22 8.58 20.98 11.55 20.98C13.95 20.98 16.47 20.5 18.84 19.58C26.18 16.74 30.92 12.36 30.9 8.42C30.89 4.64 28.17 2.23 25.52 2.03C24.13 3.12 18.6 7.23 13.22 7.95C13.01 7.98 12.79 7.94 12.6 7.85C10.61 6.88 8.73 6.39 7.02 6.39C5.43 6.39 4.46 6.83 4.2 6.97ZM18.87 9.6C17.08 9.6 15 9.1 12.58 7.84C12.07 7.57 11.88 6.96 12.15 6.47C12.43 5.98 13.06 5.8 13.57 6.06C17.93 8.34 21.34 8.07 24 5.26C24.39 4.85 25.05 4.82 25.48 5.19C25.9 5.57 25.94 6.21 25.55 6.62C24.09 8.16 21.92 9.6 18.87 9.6Z" />
	</g>
</svg>