<svg xmlns="http://www.w3.org/2000/svg" viewBox="0 0 17 17" width="17" height="17">
	<style>
		tspan { white-space:pre }
		.shp0 { fill: #000000 } 
	</style>
	<g id="Footer">
		<g id="Redes">
			<path id="Instagram" class="shp0" d="M14.1 0.18L3.41 0.18C1.81 0.18 0.51 1.5 0.51 3.12L0.51 13.99C0.51 15.61 1.81 16.94 3.41 16.94L14.1 16.94C15.7 16.94 17 15.61 17 13.99L17 3.12C17 1.5 15.7 0.18 14.1 0.18ZM12.29 1.9C12.29 1.62 12.51 1.39 12.79 1.39L14.69 1.39C14.96 1.39 15.18 1.62 15.18 1.9L15.18 3.83C15.18 4.11 14.96 4.34 14.69 4.34L12.79 4.34C12.51 4.34 12.29 4.11 12.29 3.83L12.29 1.9L12.29 1.9ZM11.75 8.4C11.75 10.07 10.42 11.43 8.78 11.43C7.14 11.43 5.81 10.07 5.81 8.4C5.81 6.74 7.14 5.38 8.78 5.38C10.42 5.38 11.75 6.74 11.75 8.4ZM15.21 13.99C15.21 14.61 14.71 15.11 14.1 15.11L3.41 15.11C2.8 15.11 2.31 14.61 2.31 13.99L2.31 6.23L4.52 6.23C4.2 6.89 4.01 7.62 4.01 8.4C4.01 11.08 6.15 13.25 8.78 13.25C11.41 13.25 13.54 11.08 13.54 8.4C13.54 7.23 13.13 6.16 12.45 5.32L15.21 5.32L15.21 13.99Z" />
		</g>
	</g>
</svg>