<svg xmlns="http://www.w3.org/2000/svg" viewBox="0 0 29 24" width="29" height="24">
	<style>
		tspan { white-space:pre }
		.shp0 { fill: #ffffff } 
	</style>
	<g id="Manu">
		<g id="Menu">
			<path id="Shape 5" class="shp0" d="M27.95 2.04L1.05 2.04C0.47 2.04 0 1.58 0 1.02C0 0.46 0.47 0 1.05 0L27.95 0C28.53 0 29 0.46 29 1.02C29 1.58 28.53 2.04 27.95 2.04ZM24.58 24L4.17 24C3.09 24 2.21 23.14 2.21 22.09C2.21 22.07 2.21 22.06 2.21 22.04L3.14 4.9C3.17 4.34 3.66 3.91 4.24 3.94C4.82 3.97 5.26 4.44 5.23 5.01L4.31 21.96L24.44 21.96L23.54 1.93C23.51 1.37 23.96 0.9 24.54 0.87C25.11 0.85 25.61 1.28 25.63 1.84L26.54 22.05C26.54 22.06 26.54 22.08 26.54 22.09C26.54 23.14 25.66 24 24.58 24ZM14.38 7.67C11.46 7.67 9.09 5.36 9.09 2.52C9.09 1.96 9.56 1.5 10.13 1.5C10.71 1.5 11.18 1.96 11.18 2.52C11.18 4.24 12.61 5.63 14.38 5.63C15.53 5.63 16.6 5.02 17.17 4.03C17.43 3.58 17.57 3.05 17.57 2.52C17.57 1.96 18.04 1.5 18.62 1.5C19.2 1.5 19.67 1.96 19.67 2.52C19.67 3.4 19.43 4.26 19 5.03C18.06 6.66 16.29 7.67 14.38 7.67Z" />
		</g>
	</g>
</svg>