<svg xmlns="http://www.w3.org/2000/svg" viewBox="0 0 18 16" width="18" height="16">
	<style>
		tspan { white-space:pre }
		.shp0 { fill: #000000 } 
	</style>
	<g id="Footer">
		<g id="Redes">
			<path id="Twitter" class="shp0" d="M17.29 2.28C16.99 2.46 16.11 2.82 15.28 2.91C15.81 2.59 16.59 1.56 16.79 0.75C16.28 1.1 15.11 1.63 14.53 1.63C14.53 1.63 14.53 1.63 14.53 1.63C13.88 0.87 12.95 0.4 11.92 0.4C9.93 0.4 8.31 2.18 8.31 4.38C8.31 4.68 8.34 4.98 8.4 5.26L8.4 5.26C5.7 5.19 2.54 3.69 0.75 1.14C-0.34 3.22 0.61 5.54 1.85 6.39C1.42 6.43 0.64 6.34 0.27 5.94C0.25 7.33 0.85 9.16 3.06 9.83C2.63 10.08 1.88 10.01 1.55 9.95C1.67 11.13 3.16 12.66 4.78 12.66C4.2 13.39 2.23 14.73 -0.22 14.31C1.44 15.42 3.38 16.06 5.43 16.06C11.25 16.06 15.78 10.86 15.54 4.45C15.54 4.44 15.53 4.43 15.53 4.43C15.53 4.41 15.54 4.39 15.54 4.38C15.54 4.36 15.53 4.34 15.53 4.32C16.06 3.92 16.78 3.21 17.29 2.28Z" />
		</g>
	</g>
</svg>