<svg xmlns="http://www.w3.org/2000/svg" viewBox="0 0 24 28" width="24" height="28">
	<style>
		tspan { white-space:pre }
		.shp0 { fill: #ffffff } 
	</style>
	<g id="Manu">
		<g id="Menu">
			<path id="Shape 3" class="shp0" d="M11.89 28C9.64 28 8.01 27.19 6.77 26.41C4.82 25.18 0.64 22.38 0.47 22.26C0.17 22.06 0 21.73 0 21.38L0 7.03C0 3.64 1.28 1.88 4.15 1.33C7.23 0.73 11.25 0.11 11.29 0.1C11.38 0.09 11.48 0.09 11.57 0.1C11.67 0.05 11.78 0.03 11.9 0.02C15.57 -0.3 18.91 5.06 19.51 6.08C22.4 9.25 22.95 11.27 23.61 14.28C24.71 19.38 23.37 24.1 21.42 25.3C19.84 26.29 17.13 27.01 14.49 27.66C13.54 27.9 12.68 28 11.89 28ZM2.16 20.82C3.33 21.61 6.4 23.65 7.94 24.63C9.33 25.5 11.13 26.31 13.96 25.61C16.32 25.02 18.95 24.33 20.26 23.51C21.2 22.93 22.48 19.3 21.49 14.72C20.9 12.01 20.55 10.37 17.83 7.41C17.77 7.36 17.72 7.29 17.69 7.22C16.5 5.17 13.93 1.97 12.09 2.13C12.01 2.13 11.94 2.13 11.88 2.12C11.8 2.16 11.71 2.18 11.62 2.2C11.58 2.2 7.61 2.82 4.57 3.41C2.97 3.72 2.16 4.36 2.16 7.03L2.16 20.82ZM8.36 22.78C8 22.78 7.65 22.6 7.44 22.29C7.12 21.79 7.27 21.14 7.77 20.82C8.31 20.48 8.55 19.82 8.65 19.32C8.96 17.84 8.53 15.82 7.62 14.52C6.88 13.45 5.89 12.93 5.23 13.26C4.69 13.52 4.04 13.31 3.78 12.79C3.51 12.26 3.73 11.63 4.26 11.36C5.94 10.54 8.01 11.33 9.41 13.33C10.65 15.11 11.2 17.69 10.77 19.74C10.5 21.04 9.87 22.03 8.94 22.61C8.76 22.72 8.55 22.78 8.36 22.78ZM10.53 7.04C9.53 7.04 8.51 6.71 7.53 6.05C6.32 5.24 4.69 3.49 5.04 2.33C5.21 1.77 5.81 1.45 6.38 1.61C6.85 1.75 7.16 2.17 7.16 2.62C7.36 3.08 8.45 4.39 9.77 4.8C10.57 5.05 11.31 4.91 12.01 4.38C12.48 4.02 13.16 4.11 13.52 4.57C13.89 5.03 13.8 5.7 13.33 6.06C12.47 6.71 11.51 7.04 10.53 7.04Z" />
		</g>
	</g>
</svg>